<svg xmlns="http://www.w3.org/2000/svg" width="197" height="197" viewBox="0 0 197 197">
  <metadata><?xpacket begin="﻿" id="W5M0MpCehiHzreSzNTczkc9d"?>
<x:xmpmeta xmlns:x="adobe:ns:meta/" x:xmptk="Adobe XMP Core 5.6-c140 79.160451, 2017/05/06-01:08:21        ">
   <rdf:RDF xmlns:rdf="http://www.w3.org/1999/02/22-rdf-syntax-ns#">
      <rdf:Description rdf:about=""/>
   </rdf:RDF>
</x:xmpmeta>
                                                                                                    
                                                                                                    
                                                                                                    
                                                                                                    
                                                                                                    
                                                                                                    
                                                                                                    
                                                                                                    
                                                                                                    
                                                                                                    
                                                                                                    
                                                                                                    
                                                                                                    
                                                                                                    
                                                                                                    
                                                                                                    
                                                                                                    
                                                                                                    
                                                                                                    
                                                                                                    
                           
<?xpacket end="w"?></metadata>
<defs>
    <style>
      .cls-1, .cls-6 {
        fill: #415b72;
      }

      .cls-1, .cls-2, .cls-3, .cls-4, .cls-5 {
        fill-rule: evenodd;
      }

      .cls-2 {
        fill: #c4e5ff;
      }

      .cls-3 {
        fill: #85aac9;
      }

      .cls-4, .cls-7 {
        fill: #a8d7ff;
      }

      .cls-5 {
        fill: #1e374b;
      }
    </style>
  </defs>
  <path id="base" class="cls-1" d="M197.007,96.866a28.4,28.4,0,0,1-12.386,23.94A28.423,28.423,0,0,1,162.8,161.73a28.43,28.43,0,0,1-40.566,22.487,28.435,28.435,0,0,1-46.358,1.572,28.431,28.431,0,0,1-39.763-23.878,28.424,28.424,0,0,1-24.54-39.352,28.419,28.419,0,0,1,.8-46.366A28.423,28.423,0,0,1,34.2,35.27,28.431,28.431,0,0,1,74.763,12.782a28.434,28.434,0,0,1,46.358-1.571,28.43,28.43,0,0,1,39.763,23.878A28.424,28.424,0,0,1,185.424,74.44,28.379,28.379,0,0,1,197.007,96.866Z"/>
  <path id="base-1" class="cls-2" d="M193.705,96.921a27.446,27.446,0,0,1-11.971,23.138,27.469,27.469,0,0,1-21.086,39.551,27.478,27.478,0,0,1-39.206,21.734,27.481,27.481,0,0,1-44.8,1.519,27.477,27.477,0,0,1-38.43-23.078A27.47,27.47,0,0,1,14.49,121.753a27.467,27.467,0,0,1,.776-44.812A27.47,27.47,0,0,1,36.353,37.389,27.478,27.478,0,0,1,75.558,15.655a27.481,27.481,0,0,1,44.8-1.519,27.477,27.477,0,0,1,38.43,23.078A27.47,27.47,0,0,1,182.51,75.247,27.423,27.423,0,0,1,193.705,96.921Z"/>
  <path id="base-2" class="cls-3" d="M193.705,96.958a26.808,26.808,0,0,1-11.694,22.6,26.835,26.835,0,0,1-20.6,38.637,26.843,26.843,0,0,1-38.3,21.232,26.846,26.846,0,0,1-43.768,1.484A26.842,26.842,0,0,1,41.8,158.368a26.835,26.835,0,0,1-23.169-37.153,26.832,26.832,0,0,1,.758-43.776A26.835,26.835,0,0,1,39.991,38.8a26.842,26.842,0,0,1,38.3-21.232,26.846,26.846,0,0,1,43.768-1.483A26.842,26.842,0,0,1,159.6,38.631a26.836,26.836,0,0,1,23.17,37.153A26.792,26.792,0,0,1,193.705,96.958Z"/>
  <path id="bg" class="cls-4" d="M189.3,96.994a26.176,26.176,0,0,1-11.418,22.068,26.2,26.2,0,0,1-20.111,37.722,26.207,26.207,0,0,1-37.393,20.729,26.21,26.21,0,0,1-42.733,1.449A26.207,26.207,0,0,1,41,156.951a26.2,26.2,0,0,1-22.621-36.274,26.2,26.2,0,0,1,.74-42.74A26.2,26.2,0,0,1,39.226,40.215,26.207,26.207,0,0,1,76.619,19.486a26.21,26.21,0,0,1,42.732-1.448A26.207,26.207,0,0,1,156,40.048a26.2,26.2,0,0,1,22.621,36.274A26.16,26.16,0,0,1,189.3,96.994Z"/>
  <path id="Circle-shadow" class="cls-5" d="M99,31A68,68,0,1,1,31,99,68,68,0,0,1,99,31Zm0,5A63,63,0,1,1,36,99,63,63,0,0,1,99,36Z"/>
  <path id="circle" class="cls-1" d="M161.975,98a62.983,62.983,0,0,0-125.95,0h-5a67.982,67.982,0,0,1,135.95,0h-5Z"/>
  <rect id="border" class="cls-6" x="44" y="79" width="110" height="39" rx="4" ry="4"/>
  <rect id="upper" class="cls-7" x="47.625" y="82.625" width="102.75" height="31.75" rx="4" ry="4"/>
  <path id="BONUS" class="cls-1" d="M60.167,92.688a7.164,7.164,0,0,1,2.242.3,1.7,1.7,0,0,1,1.019,1.747,1.786,1.786,0,0,1-.771,1.663,3.819,3.819,0,0,1-2.007.469H56.039V92.688h4.128ZM60.709,100a4.819,4.819,0,0,1,1.9.321,2.032,2.032,0,0,1,1.209,2.029,2.383,2.383,0,0,1-1.247,2.364,4.5,4.5,0,0,1-1.922.333H56.039V100h4.67Zm0.715-10.6h-9.17v18.93H60.8a13.118,13.118,0,0,0,2.681-.257,5.221,5.221,0,0,0,3.488-2.44,5.524,5.524,0,0,0,.845-3.018,5,5,0,0,0-.739-2.774,4.225,4.225,0,0,0-2.192-1.669,4.532,4.532,0,0,0,1.447-1.079,4.208,4.208,0,0,0,.879-2.787,4.808,4.808,0,0,0-.871-2.89q-1.447-1.965-4.918-2.016h0Zm18.2,16.105a4.587,4.587,0,0,1-3.759-1.734,9.369,9.369,0,0,1,0-9.863,4.587,4.587,0,0,1,3.759-1.734,4.527,4.527,0,0,1,3.74,1.74,9.468,9.468,0,0,1,0,9.857,4.533,4.533,0,0,1-3.74,1.734h0Zm9.088-6.666q0-5.2-2.871-7.808a8.286,8.286,0,0,0-6.218-2.209A8.285,8.285,0,0,0,73.4,91.031q-2.884,2.607-2.883,7.808,0,5.1,2.883,7.809a8.283,8.283,0,0,0,6.218,2.209,8.284,8.284,0,0,0,6.218-2.209q2.87-2.71,2.871-7.809h0Zm2.961,9.491h3.695V94.9l7.724,13.432h3.964V89.4H103.36v13.2L95.828,89.4H91.671v18.93Zm19.1-7.3a9.735,9.735,0,0,0,.938,4.7q1.76,3.082,6.682,3.082t6.67-3.082a9.747,9.747,0,0,0,.938-4.7V89.4h-4.029v11.626a6.564,6.564,0,0,1-.462,2.849q-0.719,1.592-3.117,1.591t-3.129-1.591a6.564,6.564,0,0,1-.462-2.849V89.4h-4.029v11.635Zm18.112,1.452a5.581,5.581,0,0,0,2.146,4.642,9.3,9.3,0,0,0,5.9,1.689,8.5,8.5,0,0,0,5.679-1.714,5.428,5.428,0,0,0,2.01-4.309,4.627,4.627,0,0,0-1.7-3.866,8.491,8.491,0,0,0-3.282-1.374l-3.33-.783a11.494,11.494,0,0,1-2.521-.783,1.623,1.623,0,0,1-.924-1.516,1.951,1.951,0,0,1,.937-1.721,4.508,4.508,0,0,1,2.508-.616,5.257,5.257,0,0,1,2.362.475,2.709,2.709,0,0,1,1.531,2.427h3.81a5.634,5.634,0,0,0-2.248-4.6,8.464,8.464,0,0,0-5.18-1.586,8.012,8.012,0,0,0-5.512,1.682,5.435,5.435,0,0,0-1.876,4.225,4.611,4.611,0,0,0,1.918,4.1,12.8,12.8,0,0,0,4.161,1.451l2.054,0.45a9.038,9.038,0,0,1,2.635.886,1.618,1.618,0,0,1,.83,1.451,2.2,2.2,0,0,1-1.7,2.2,7.261,7.261,0,0,1-2.326.309,4.214,4.214,0,0,1-3.378-1.169,3.837,3.837,0,0,1-.723-1.939h-3.784Z"/>
</svg>
