<svg id="stats-management" xmlns="http://www.w3.org/2000/svg" width="217" height="192" viewBox="0 0 217 192">
  <metadata><?xpacket begin="﻿" id="W5M0MpCehiHzreSzNTczkc9d"?>
<x:xmpmeta xmlns:x="adobe:ns:meta/" x:xmptk="Adobe XMP Core 5.6-c138 79.159824, 2016/09/14-01:09:01        ">
   <rdf:RDF xmlns:rdf="http://www.w3.org/1999/02/22-rdf-syntax-ns#">
      <rdf:Description rdf:about=""/>
   </rdf:RDF>
</x:xmpmeta>
                                                                                                    
                                                                                                    
                                                                                                    
                                                                                                    
                                                                                                    
                                                                                                    
                                                                                                    
                                                                                                    
                                                                                                    
                                                                                                    
                                                                                                    
                                                                                                    
                                                                                                    
                                                                                                    
                                                                                                    
                                                                                                    
                                                                                                    
                                                                                                    
                                                                                                    
                                                                                                    
                           
<?xpacket end="w"?></metadata>
<defs>
    <style>
      .cls-1 {
        fill: #4a667d;
      }

      .cls-1, .cls-2, .cls-3, .cls-4, .cls-5 {
        fill-rule: evenodd;
      }

      .cls-2, .cls-5 {
        fill: #b1dcff;
      }

      .cls-3 {
        fill: #91b9d9;
      }

      .cls-4 {
        fill: #cbe8ff;
      }

      .cls-5 {
        stroke: #4a667d;
        stroke-linejoin: round;
        stroke-width: 4px;
      }
    </style>
  </defs>
  <g>
    <path class="cls-1" d="M17,114.354V103a2,2,0,0,1,2-2H38.149Zm48,10.217V190a2,2,0,0,1-2,2H19a2,2,0,0,1-2-2V152.6Z"/>
    <path id="Rectangle_12_copy" data-name="Rectangle 12 copy" class="cls-2" d="M21,111.828V105H31.814Zm40,15.079V188H21V150.267Z"/>
    <path id="Rectangle_12_copy_2" data-name="Rectangle 12 copy 2" class="cls-3" d="M61,126.907V188H55V130.411Z"/>
    <path id="Rectangle_12_copy_3" data-name="Rectangle 12 copy 3" class="cls-4" d="M21,111.828V105h6v3.04Zm6,34.935V188H21V150.267Z"/>
  </g>
  <g id="Group_2_copy" data-name="Group 2 copy">
    <path class="cls-1" d="M75,77.732V64a2,2,0,0,1,2-2H99.916ZM123,90.7V190a2,2,0,0,1-2,2H77a2,2,0,0,1-2-2V118.731Z"/>
    <path id="Rectangle_12_copy-2" data-name="Rectangle 12 copy" class="cls-2" d="M79,75.207V66H93.581Zm40,17.829V188H79V116.4Z"/>
    <path id="Rectangle_12_copy_2-2" data-name="Rectangle 12 copy 2" class="cls-3" d="M119,93.036V188h-6V96.54Z"/>
    <path id="Rectangle_12_copy_3-2" data-name="Rectangle 12 copy 3" class="cls-4" d="M79,75.207V66h6v5.418Zm6,37.685V188H79V116.4Z"/>
  </g>
  <g id="Group_2_copy_2" data-name="Group 2 copy 2">
    <path class="cls-1" d="M164.724,66.334L180.8,90.52l0.2-.466V190a2,2,0,0,1-2,2H135a2,2,0,0,1-2-2V84.86ZM133,41.11V22a1.992,1.992,0,0,1,1.085-1.769l9.454,14.225Z"/>
    <path id="Rectangle_12_copy-3" data-name="Rectangle 12 copy" class="cls-2" d="M164.724,66.334L177,84.806V188H137V82.524ZM137,24.617l6.539,9.839L137,38.585V24.617Z"/>
    <path id="Rectangle_12_copy_2-3" data-name="Rectangle 12 copy 2" class="cls-3" d="M177,84.806V188h-6V75.778Z"/>
    <path id="Rectangle_12_copy_3-3" data-name="Rectangle 12 copy 3" class="cls-4" d="M143,79.02V188h-6V82.524Zm-6-54.4,6,9.028V34.8l-6,3.788V24.617Z"/>
  </g>
  <g id="Arrow">
    <path class="cls-5" d="M215,10L187.848,74.813s-1.945,12.041-9.557.624L166.748,58.122,4.137,153.4l-3.731-5.671L147.579,29.368,132.991,7.487S124.774-.573,137.053,0C153.612-.011,188.839-0.023,208,0,221.43-.511,215,10,215,10Z"/>
  </g>
</svg>
