<svg id="affiliate-tools" xmlns="http://www.w3.org/2000/svg" width="111" height="194" viewBox="0 0 111 194">
  <metadata><?xpacket begin="﻿" id="W5M0MpCehiHzreSzNTczkc9d"?>
<x:xmpmeta xmlns:x="adobe:ns:meta/" x:xmptk="Adobe XMP Core 5.6-c138 79.159824, 2016/09/14-01:09:01        ">
   <rdf:RDF xmlns:rdf="http://www.w3.org/1999/02/22-rdf-syntax-ns#">
      <rdf:Description rdf:about=""/>
   </rdf:RDF>
</x:xmpmeta>
                                                                                                    
                                                                                                    
                                                                                                    
                                                                                                    
                                                                                                    
                                                                                                    
                                                                                                    
                                                                                                    
                                                                                                    
                                                                                                    
                                                                                                    
                                                                                                    
                                                                                                    
                                                                                                    
                                                                                                    
                                                                                                    
                                                                                                    
                                                                                                    
                                                                                                    
                                                                                                    
                           
<?xpacket end="w"?></metadata>
<defs>
    <style>
      .cls-1, .cls-3 {
        fill: #4a667d;
      }

      .cls-1, .cls-2, .cls-8 {
        fill-rule: evenodd;
      }

      .cls-2, .cls-5 {
        fill: #b1dcff;
      }

      .cls-4, .cls-8 {
        fill: #fff;
      }

      .cls-6 {
        fill: #91b9d9;
      }

      .cls-7 {
        fill: #cbe8ff;
      }
    </style>
  </defs>
  <path id="Wrench_Icon" data-name="Wrench Icon" class="cls-1" d="M44.406,65.1l6.7,114.5c0,6.355-12.147,13.508-18.5,13.508s-18.5-7.153-18.5-13.508L20.79,65.567C9.02,63.307,0,53.429,0,41V25C0,13.527,7.7,4.326,18.125,1.123V29.531a9.5,9.5,0,0,0,9.5,9.5h7a9.5,9.5,0,0,0,9.5-9.5V0.848C55.043,3.733,63,14.175,63,26V41A24.87,24.87,0,0,1,44.406,65.1Z"/>
  <path class="cls-2" d="M48,7s9.857,3.245,11,16V45S57.245,56.761,42,62c0,0-2.161,2.508-2,5l7,113s-13.311,20.343-29,0L25,67s-0.263-4.113-3-5c0,0-15.584-3.615-18-18V22S5.749,12.337,14,7V31s1.753,10.455,12,12H36s11.757-1.583,12-13V7Z"/>
  <circle class="cls-3" cx="32.5" cy="171.5" r="8.5"/>
  <circle class="cls-4" cx="32.5" cy="171.5" r="4.5"/>
  <rect class="cls-3" x="76" y="4" width="35" height="107" rx="2" ry="2"/>
  <rect class="cls-5" x="80" y="8" width="27" height="99"/>
  <rect id="Rectangle_14_copy" data-name="Rectangle 14 copy" class="cls-6" x="102" y="8" width="5" height="99"/>
  <rect id="Rectangle_14_copy_2" data-name="Rectangle 14 copy 2" class="cls-7" x="80" y="8" width="5" height="99"/>
  <path id="Rectangle_6_copy" data-name="Rectangle 6 copy" class="cls-1" d="M87,107h14v63h6l-8.381,23H89.381L81,170h6V107Z"/>
  <path class="cls-8" d="M91,111h6v59s-0.063,4.17,4,4l-5,15H92l-5-15s4.53-1.391,4-4V111Z"/>
</svg>
